<svg width="28" height="20" viewBox="0 0 28 20" fill="none" xmlns="http://www.w3.org/2000/svg">
<path d="M27.8061 10.0002L18.2511 19.5549C18.0303 19.7753 17.6872 19.9283 17.2973 19.9802C16.9074 20.032 16.5025 19.9786 16.1717 19.8315C15.8408 19.6845 15.6111 19.4559 15.533 19.196C15.4548 18.9361 15.5347 18.6662 15.7549 18.4455L23.1991 11.0002H1.99695C1.59912 11.0002 1.21759 10.8948 0.936288 10.7073C0.654983 10.5198 0.496948 10.2654 0.496948 10.0002C0.496948 9.73498 0.654983 9.48062 0.936288 9.29309C1.21759 9.10555 1.59912 9.00019 1.99695 9.00019H23.1991L15.7549 1.55489C15.5386 1.33422 15.4617 1.06551 15.5411 0.807238C15.6204 0.548966 15.8495 0.322023 16.1785 0.175781C16.5075 0.0295398 16.9098 -0.0241678 17.298 0.0263425C17.6861 0.0768528 18.0286 0.227494 18.2509 0.445495L27.8061 10.0002Z" fill="#D0B58A"/>
</svg>
