<svg width="122" height="122" viewBox="0 0 122 122" fill="none" xmlns="http://www.w3.org/2000/svg">
<circle opacity="0.5" cx="61" cy="61" r="61" fill="#335782"/>
<path d="M29.34 81.4168H68.2V94.5032L76.24 89.6792L84.28 94.5032V81.4168H93.66V30.4968H29.34V81.4168ZM81.9551 72.3235C81.8345 72.4455 81.7058 72.558 81.5785 72.6719C81.5062 72.7362 81.4392 72.8046 81.3641 72.8662C81.281 72.9359 81.1926 72.9949 81.1068 73.0605C79.9522 73.9479 78.5769 74.5026 77.1297 74.6645L77.056 74.6752C76.5115 74.7294 75.963 74.7294 75.4185 74.6752L75.3448 74.6645C73.8977 74.5023 72.5225 73.9477 71.3677 73.0605C71.282 72.9949 71.1935 72.9346 71.1104 72.8662C71.0367 72.8046 70.9684 72.7362 70.896 72.6719C70.7687 72.558 70.6414 72.4455 70.5195 72.3235C69.0296 70.8219 68.1939 68.7921 68.1946 66.6768C68.1946 62.2427 71.8005 58.6368 76.2346 58.6368C80.6687 58.6368 84.2746 62.2427 84.2746 66.6768C84.28 68.792 83.4457 70.8229 81.9551 72.3235ZM81.6 89.7703L76.24 86.5543L70.88 89.7703V75.963C70.9255 75.9898 70.9764 76.0072 71.0233 76.0326C71.3784 76.231 71.7443 76.4132 72.1221 76.5713L72.1731 76.5901C74.7784 77.6666 77.7042 77.6666 80.3095 76.5901L80.3605 76.5713C80.7383 76.4132 81.1042 76.2323 81.4593 76.0326C81.5062 76.0072 81.5571 75.9898 81.6026 75.963V89.7703H81.6ZM32.02 33.1768H90.98V78.7368H84.28V73.7439C86.0063 71.7945 86.9596 69.2807 86.96 66.6768C86.96 60.766 82.1507 55.9568 76.24 55.9568C70.3292 55.9568 65.52 60.766 65.52 66.6768C65.52 69.3849 66.537 71.8545 68.2 73.7439V78.7368H32.02V33.1768Z" fill="#EFA065"/>
<path d="M44.08 38.5368H78.92V41.2168H44.08V38.5368ZM50.78 46.5768H72.22V49.2568H50.78V46.5768ZM37.38 70.6968H52.12V73.3768H37.38V70.6968Z" fill="#EFA065"/>
</svg>
