<svg width="122" height="122" viewBox="0 0 122 122" fill="none" xmlns="http://www.w3.org/2000/svg">
<circle opacity="0.5" cx="61" cy="61" r="61" fill="#335782"/>
<g clip-path="url(#clip0_26_116)">
<path fill-rule="evenodd" clip-rule="evenodd" d="M56.8599 32.6337L59.4932 34.7503L58.6068 38.0106C58.4567 38.5631 58.659 39.1375 59.1221 39.4741C59.3549 39.6447 59.6359 39.7368 59.9246 39.7372C60.1837 39.7372 60.4436 39.6623 60.6735 39.5119L63.5 37.6615L66.3269 39.5119C66.8061 39.8255 67.415 39.8111 67.879 39.4737C68.3416 39.1371 68.5437 38.5629 68.3935 38.0104L67.5072 34.7503L70.1404 32.6338C70.5867 32.2755 70.7608 31.692 70.5843 31.1474C70.4075 30.6024 69.9235 30.2322 69.3513 30.2044L65.9768 30.0399L64.7776 26.8815V26.8812C64.5741 26.3459 64.0728 26 63.5002 26C62.9274 26 62.426 26.3459 62.2227 26.8812L61.0236 30.0399L57.6492 30.2044C57.0768 30.2322 56.5928 30.6024 56.4165 31.1463C56.239 31.6914 56.4134 32.2755 56.8599 32.6337ZM61.6449 32.1684C61.9104 32.1556 62.1665 32.0655 62.3816 31.9093C62.5967 31.7531 62.7615 31.5374 62.8559 31.2889L63.5 29.592L64.1442 31.289C64.2385 31.5375 64.4033 31.7531 64.6184 31.9093C64.8334 32.0655 65.0894 32.1555 65.3548 32.1684L67.1676 32.2568L65.7529 33.3938C65.5457 33.5603 65.3916 33.7836 65.3094 34.0364C65.2273 34.2893 65.2207 34.5605 65.2904 34.817L65.7665 36.5685L64.2488 35.575C64.0264 35.4291 63.7662 35.3513 63.5002 35.3512C63.2342 35.3511 62.9739 35.4287 62.7514 35.5744L61.2329 36.5685L61.7091 34.8165C61.7788 34.5601 61.7722 34.2889 61.69 34.0361C61.6078 33.7834 61.4537 33.5602 61.2465 33.3938L59.832 32.2568L61.6449 32.1684ZM72.0573 35.5484L74.6907 37.6649L73.8044 40.9252C73.6542 41.4777 73.8565 42.0521 74.3196 42.3887C74.5524 42.5593 74.8335 42.6514 75.1221 42.6518C75.3813 42.6518 75.6411 42.5768 75.871 42.4264L78.6977 40.5761L81.5245 42.4264C82.0035 42.7399 82.612 42.7254 83.0766 42.3883C83.5394 42.0517 83.7414 41.4773 83.5912 40.9252L82.7048 37.6649L85.338 35.5485C85.7846 35.1895 85.9587 34.6057 85.7819 34.0619C85.6051 33.517 85.1212 33.1468 84.549 33.119L81.1744 32.9544L79.9753 29.7961V29.7958C79.7719 29.2605 79.2706 28.9146 78.698 28.9146C78.1252 28.9146 77.6238 29.2605 77.4205 29.7958L76.2214 32.9544L72.847 33.119C72.2746 33.1468 71.7906 33.517 71.6143 34.0609C71.4369 34.6053 71.6108 35.189 72.0573 35.5484ZM76.8425 35.0828C77.1081 35.07 77.3641 34.98 77.5792 34.8237C77.7944 34.6675 77.9592 34.4519 78.0535 34.2033L78.6976 32.5065L79.3419 34.2035C79.4362 34.4519 79.601 34.6675 79.816 34.8237C80.0311 34.9799 80.287 35.07 80.5525 35.0828L82.3652 35.1712L80.9504 36.3084C80.7432 36.4748 80.589 36.6981 80.5069 36.9509C80.4248 37.2037 80.4182 37.475 80.4881 37.7315L80.9642 39.4829L79.4465 38.4894C79.2241 38.3434 78.9638 38.2655 78.6978 38.2655C78.4317 38.2654 78.1714 38.343 77.9489 38.4889L76.4305 39.4828L76.9068 37.7312C76.9765 37.4747 76.9698 37.2035 76.8876 36.9507C76.8054 36.698 76.6513 36.4747 76.4441 36.3082L75.0295 35.1712L76.8425 35.0828ZM41.6621 35.5484L44.2954 37.6649L43.4095 40.9242C43.2587 41.4772 43.4607 42.0519 43.9243 42.3888C44.1572 42.5594 44.4383 42.6515 44.7269 42.652C44.9862 42.652 45.246 42.5771 45.4757 42.4266L48.3024 40.5763L51.1292 42.4266C51.6085 42.7403 52.2172 42.7256 52.6808 42.3888C53.144 42.0523 53.3461 41.4778 53.1959 40.9253L52.3095 37.665L54.9435 35.5481C55.3896 35.1891 55.5634 34.6055 55.3866 34.0621C55.2098 33.5171 54.7259 33.1469 54.1536 33.1191L50.7791 32.9546L49.58 29.7962V29.7959C49.3766 29.2607 48.8753 28.9147 48.3027 28.9147C47.7294 28.9147 47.2278 29.2611 47.0255 29.7959L45.8262 32.9546L42.4517 33.1191C41.88 33.1469 41.3961 33.5167 41.2186 34.0621C41.0419 34.6064 41.216 35.1898 41.6621 35.5484ZM46.4472 35.0828C46.7128 35.0701 46.9688 34.9801 47.1839 34.8238C47.3991 34.6676 47.5638 34.4519 47.6581 34.2033L48.3024 32.5066L48.9466 34.2035C49.0409 34.4519 49.2057 34.6675 49.4207 34.8237C49.6357 34.9799 49.8917 35.07 50.1572 35.0828L51.9699 35.1712L50.5545 36.3086C50.3476 36.4753 50.1937 36.6986 50.1117 36.9512C50.0297 37.2039 50.0231 37.475 50.0928 37.7313L50.5689 39.4828L49.0512 38.4893C48.8287 38.3434 48.5685 38.2656 48.3025 38.2655C48.0365 38.2654 47.7763 38.343 47.5538 38.4887L46.0354 39.4826L46.5115 37.7311C46.5812 37.4746 46.5746 37.2033 46.4924 36.9506C46.4103 36.6978 46.2561 36.4745 46.0488 36.3081L44.6342 35.1711L46.4472 35.0828ZM52.4844 52.2302C53.2933 51.3886 53.7923 50.2469 53.7923 48.9902C53.7923 46.4098 51.693 44.3103 49.1125 44.3103C46.532 44.3103 44.4326 46.4097 44.4326 48.9902C44.4326 50.2473 44.9318 51.3894 45.7412 52.2311C43.6429 53.1705 41.9928 54.9737 41.2765 57.2866C41.0187 58.119 41.1662 58.9967 41.6807 59.6948C42.1954 60.393 42.9903 60.7934 43.8619 60.7934H52.9553V61.6397C52.9553 63.6372 54.5806 65.2623 56.5781 65.2623H70.4223C72.4195 65.2623 74.0448 63.6372 74.0449 61.6397V60.7938H83.1385C84.01 60.7938 84.8049 60.3933 85.3197 59.6952C85.8342 58.997 85.9815 58.1192 85.7237 57.2869C85.0076 54.9739 83.3574 53.1708 81.2592 52.2313C82.0686 51.3896 82.5678 50.2476 82.5678 48.9905C82.5678 46.4101 80.4684 44.3106 77.8879 44.3106C75.3074 44.3106 73.208 46.41 73.208 48.9905C73.208 50.2472 73.7069 51.3888 74.5158 52.2304C73.4973 52.6878 72.5843 53.3507 71.834 54.1775C70.6634 52.6902 69.1155 51.5439 67.3514 50.8582C68.6001 49.777 69.3924 48.182 69.3924 46.4045C69.3924 43.1555 66.7492 40.5121 63.5002 40.5121C60.2511 40.5121 57.6078 43.1554 57.6078 46.4045C57.6078 48.182 58.4001 49.777 59.6489 50.8582C57.8848 51.544 56.3368 52.6902 55.1663 54.1775C54.416 53.3506 53.5029 52.6877 52.4844 52.2302ZM49.1125 46.4666C50.5039 46.4666 51.6361 47.5986 51.6361 48.9902C51.6361 50.3818 50.5041 51.5138 49.1125 51.5138C47.7209 51.5138 46.5889 50.3818 46.5889 48.9902C46.5889 47.5986 47.721 46.4666 49.1125 46.4666ZM43.4165 58.4154C43.3647 58.346 43.3304 58.2652 43.3165 58.1797C43.3025 58.0942 43.3093 58.0066 43.3363 57.9244C44.1245 55.3796 46.4456 53.6699 49.1123 53.6699C51.0512 53.6699 52.822 54.5722 53.9605 56.1072C53.5709 56.9111 53.285 57.7612 53.1096 58.6371H43.8619C43.7753 58.6386 43.6896 58.6193 43.6121 58.5807C43.5346 58.5421 43.4675 58.4854 43.4165 58.4154ZM75.3641 48.9905C75.3641 47.599 76.4962 46.4669 77.8878 46.4669C79.2793 46.4669 80.4114 47.5989 80.4114 48.9905C80.4114 50.3821 79.2793 51.5141 77.8878 51.5141C76.4962 51.5141 75.3641 50.3819 75.3641 48.9905ZM77.8878 53.6702C80.5546 53.6702 82.8758 55.38 83.6638 57.9248C83.6908 58.007 83.6976 58.0946 83.6837 58.1801C83.6697 58.2655 83.6355 58.3464 83.5838 58.4159C83.5327 58.4858 83.4656 58.5425 83.3881 58.5811C83.3105 58.6197 83.2248 58.6391 83.1382 58.6377H73.8905C73.715 57.7617 73.4291 56.9115 73.0396 56.1075C74.1779 54.5726 75.9489 53.6702 77.8878 53.6702ZM63.5002 42.6684C65.5602 42.6684 67.2362 44.3444 67.2362 46.4045C67.2362 48.4645 65.5602 50.1404 63.5002 50.1404C61.4402 50.1404 59.7641 48.4645 59.7641 46.4045C59.7641 44.3444 61.4402 42.6684 63.5002 42.6684ZM63.5 52.2965C67.8073 52.2965 71.4036 55.5075 71.8885 59.7746V61.6397C71.8884 62.4483 71.2306 63.1062 70.4221 63.1062H56.5781C55.7695 63.1062 55.1116 62.4484 55.1116 61.6398V59.7746C55.5964 55.5075 59.1928 52.2965 63.5 52.2965ZM95.1755 69.8821C94.5575 68.8502 92.0221 65.7859 85.3456 69.6746L73.6261 76.5005C73.0702 76.8242 72.5052 77.0576 71.9174 77.2029C72.1275 76.8488 72.2934 76.4527 72.4099 76.0176C73.0141 73.762 71.6741 71.4071 69.3592 70.6566C69.313 70.6418 69.2658 70.6299 69.218 70.6212C65.8532 70.0143 62.5308 68.8132 59.8611 67.8481C58.9324 67.5124 58.0555 67.1953 57.3093 66.9534C54.2939 65.9749 51.5729 67.184 49.308 68.4952L40.6222 73.524L39.6886 71.8742C39.3208 71.2241 38.7199 70.7557 37.9969 70.5554C37.2741 70.3551 36.5175 70.4473 35.8677 70.8154L32.5796 72.6763C31.2342 73.4378 30.759 75.1517 31.5206 76.4972L41.1877 93.5786C41.7029 94.489 42.6542 95.0008 43.6324 95.0008C44.0999 95.0008 44.5736 94.8838 45.0086 94.6376L48.2969 92.7766C48.9468 92.4087 49.4153 91.8079 49.6156 91.0849C49.8159 90.3619 49.7238 89.6057 49.3557 88.9556L48.5083 87.4584L50.4493 86.3378L65.4443 90.3556C66.2955 90.5837 67.1312 90.6976 67.9488 90.6976C69.5789 90.6976 71.1373 90.2448 72.6041 89.3417L93.8722 76.2457C95.828 75.0419 96.4492 72.0087 95.1755 69.8821ZM47.538 90.5091C47.5158 90.591 47.4777 90.6678 47.4257 90.7349C47.3737 90.802 47.3089 90.8581 47.2351 90.9L43.9468 92.7611C43.8728 92.8028 43.7913 92.8295 43.707 92.8395C43.6227 92.8496 43.5372 92.8428 43.4555 92.8196C43.3736 92.7974 43.2968 92.7592 43.2297 92.7073C43.1626 92.6553 43.1064 92.5905 43.0645 92.5167L33.3972 75.4351C33.3555 75.3612 33.3288 75.2797 33.3188 75.1954C33.3088 75.1111 33.3155 75.0256 33.3387 74.9439C33.3609 74.8619 33.3991 74.7852 33.4511 74.7181C33.5031 74.6509 33.5679 74.5948 33.6418 74.5528L36.9299 72.6918C37.0258 72.6376 37.1341 72.6091 37.2442 72.6091C37.3032 72.6091 37.3625 72.6172 37.4211 72.6335C37.5031 72.6556 37.5798 72.6938 37.647 72.7458C37.7141 72.7978 37.7702 72.8626 37.8121 72.9364L46.1087 87.5958C46.1091 87.5966 46.1094 87.5975 46.1099 87.5981L46.1108 87.5998L47.4794 90.0177C47.5637 90.1666 47.5845 90.3411 47.538 90.5091ZM92.7419 74.4097L71.4739 87.5057C69.7967 88.5384 67.9555 88.7967 66.0026 88.2728L50.5763 84.1394C50.4396 84.1027 50.2969 84.0933 50.1566 84.1118C50.0162 84.1303 49.8809 84.1762 49.7583 84.2471L47.4464 85.5816L41.6845 75.4008L50.3886 70.3613C52.3351 69.2343 54.4403 68.2895 56.6441 69.0047C57.3562 69.2355 58.1773 69.5323 59.1281 69.876C61.8538 70.8615 65.2411 72.0859 68.7571 72.7292C69.961 73.1513 70.6341 74.3139 70.327 75.4598C69.9231 76.967 68.6651 77.1555 67.6638 77.0407C65.9394 76.6862 64.3002 76.2183 62.5656 75.7229C61.7422 75.4877 60.8906 75.2444 60.0151 75.0099C59.7389 74.9359 59.4447 74.9747 59.197 75.1177C58.9494 75.2606 58.7687 75.4961 58.6947 75.7723C58.6207 76.0485 58.6595 76.3428 58.8024 76.5904C58.9454 76.8381 59.1809 77.0187 59.4571 77.0927C60.3154 77.3227 61.1582 77.5633 61.9733 77.7962C63.7626 78.3073 65.4527 78.79 67.2733 79.1622C67.2804 79.1637 67.2874 79.1641 67.2942 79.1654C67.3016 79.1668 67.3087 79.1689 67.3162 79.1702L68.7734 79.4071C70.9622 79.7576 72.9043 79.4161 74.7109 78.3641L86.4304 71.5382C89.7837 69.5856 92.3612 69.3807 93.3254 70.9904C93.9889 72.0975 93.6944 73.8233 92.7419 74.4097ZM37.9959 76.1886C38.0198 76.3419 38.0131 76.4984 37.9762 76.649C37.9393 76.7997 37.8728 76.9416 37.7808 77.0664C37.6887 77.1912 37.5728 77.2966 37.4397 77.3764C37.3067 77.4562 37.1592 77.5088 37.0057 77.5313C36.8522 77.5537 36.6958 77.5455 36.5455 77.5071C36.3951 77.4687 36.2539 77.401 36.13 77.3077C36.006 77.2144 35.9018 77.0975 35.8233 76.9637C35.7448 76.8299 35.6935 76.6819 35.6726 76.5282C35.6307 76.2216 35.7116 75.9109 35.8977 75.6636C36.0837 75.4164 36.3599 75.2525 36.6661 75.2078C36.9722 75.163 37.2837 75.241 37.5327 75.4246C37.7818 75.6083 37.9482 75.8829 37.9959 76.1886Z" fill="#EFA065"/>
</g>
<defs>
<clipPath id="clip0_26_116">
<rect width="69" height="69" fill="white" transform="translate(29 26)"/>
</clipPath>
</defs>
</svg>
