<svg width="122" height="122" viewBox="0 0 122 122" fill="none" xmlns="http://www.w3.org/2000/svg">
<circle opacity="0.5" cx="61" cy="61" r="61" fill="#335782"/>
<path d="M80.9072 47.5727L82.5865 41.5123C83.0082 39.9905 82.1163 38.4149 80.5945 37.9933L74.6433 36.3442" stroke="#EFA065" strokeWidth="5" strokeLinecap="round"/>
<path d="M42.7083 66.9597C42.7083 65.7314 41.7126 64.7357 40.4843 64.7357C39.2561 64.7357 38.2604 65.7314 38.2604 66.9597V82.8451C38.2604 84.0734 39.2561 85.0691 40.4843 85.0691C41.7126 85.0691 42.7083 84.0734 42.7083 82.8451V66.9597Z" stroke="#EFA065" strokeWidth="5"/>
<path d="M56.0521 63.1472C56.0521 61.9189 55.0564 60.9232 53.8281 60.9232C52.5999 60.9232 51.6042 61.9189 51.6042 63.1472V82.8451C51.6042 84.0734 52.5999 85.0691 53.8281 85.0691C55.0564 85.0691 56.0521 84.0734 56.0521 82.8451V63.1472Z" stroke="#EFA065" strokeWidth="5"/>
<path d="M69.3959 59.3347C69.3959 58.1064 68.4002 57.1107 67.1719 57.1107C65.9436 57.1107 64.9479 58.1064 64.9479 59.3347V82.8451C64.9479 84.0734 65.9436 85.0691 67.1719 85.0691C68.4002 85.0691 69.3959 84.0734 69.3959 82.8451V59.3347Z" stroke="#EFA065" strokeWidth="5"/>
<path d="M82.7396 55.5222C82.7396 54.2939 81.7439 53.2982 80.5156 53.2982C79.2874 53.2982 78.2917 54.2939 78.2917 55.5222V82.8451C78.2917 84.0734 79.2874 85.0691 80.5156 85.0691C81.7439 85.0691 82.7396 84.0734 82.7396 82.8451V55.5222Z" stroke="#EFA065" strokeWidth="5"/>
<path d="M38.2604 55.7342L75.4323 43.0258" stroke="#EFA065" strokeWidth="5" strokeLinecap="round"/>
</svg>
