<svg width="34" height="39" viewBox="0 0 34 39" fill="none" xmlns="http://www.w3.org/2000/svg">
<path d="M7.28571 17.0625C6.42964 17.0625 5.61987 17.2377 4.85714 17.5119V17.0625C4.85714 14.3736 7.03527 12.1875 9.71429 12.1875C11.0553 12.1875 12.1429 11.096 12.1429 9.75C12.1429 8.40404 11.0576 7.3125 9.71429 7.3125C4.35777 7.3125 0 11.6848 0 17.0625V24.375C0 28.4136 3.26187 31.6875 7.28571 31.6875C11.3096 31.6875 14.5714 28.4136 14.5714 24.375C14.5714 20.3364 11.308 17.0625 7.28571 17.0625ZM26.7143 17.0625C25.8582 17.0625 25.0484 17.2381 24.2857 17.5103V17.0625C24.2857 14.3736 26.4638 12.1875 29.1429 12.1875C30.4839 12.1875 31.5714 11.096 31.5714 9.75C31.5714 8.40404 30.4839 7.3125 29.1429 7.3125C23.7863 7.3125 19.4286 11.6863 19.4286 17.0625V24.375C19.4286 28.4136 22.6904 31.6875 26.7143 31.6875C30.7381 31.6875 34 28.4136 34 24.375C34 20.3364 30.7366 17.0625 26.7143 17.0625Z" fill="#EFA065"/>
</svg>
